<mxfile host="app.diagrams.net" modified="2023-12-02T06:43:14.559Z" agent="Mozilla/5.0 (X11; Ubuntu; Linux x86_64; rv:120.0) Gecko/20100101 Firefox/120.0" version="22.1.5" etag="Pmwj34gAPO5Ebf_SBbFe" type="github">
  <diagram name="Page-1" id="7Ov40g36NUiCXx5MYBCl">
    <mxGraphModel>
      <root>
        <mxCell id="0" />
        <mxCell id="1" parent="0" />
      </root>
    </mxGraphModel>
  </diagram>
</mxfile>
